<svg width="11" height="8" viewBox="0 0 11 8" fill="none" xmlns="http://www.w3.org/2000/svg">
<path d="M4.00473 4.68462C4.00473 5.68192 4.26314 6.61756 4.71691 7.42835C2.51116 7.04762 0.833008 5.12084 0.833008 2.80099C0.833008 2.50966 0.859157 2.2245 0.911455 1.94704C1.34214 1.81602 1.80052 1.74512 2.27428 1.74512C3.08951 1.74512 3.85707 1.95475 4.52463 2.32161C4.19085 3.03991 4.00473 3.83991 4.00473 4.68462Z" fill="#34C759"/>
<path d="M10.2067 2.80077C10.2067 4.92023 8.80692 6.71137 6.88266 7.29557C6.55195 7.39576 6.2074 7.46204 5.84901 7.48516H5.84747C5.26757 6.70366 4.92456 5.7341 4.92456 4.68439C4.92456 4.03391 5.05684 3.41426 5.29526 2.8501C5.96745 1.26243 7.48563 0.123314 9.28376 0C9.86365 0.781503 10.2067 1.75106 10.2067 2.80077Z" fill="#34C759"/>
</svg>
